<svg xmlns="http://www.w3.org/2000/svg" width="357.311" height="99.836" viewBox="0 0 357.311 99.836"><defs><style>.a{fill:#faf8fe;}</style></defs><path class="a" d="M1511.478,1175.613c-.447-.415-1.31-1.164-2.115-1.971q-23-23.091-46.022-46.156c-1.21-1.206-1.128-1.79-.028-2.889q19.547-19.515,39.027-39.1c2.625-2.633,5.231-5.286,7.86-7.916.479-.48,1.029-.89,2.1-1.808,5.2,5.446,10.386,10.855,15.547,16.282a2.266,2.266,0,0,0,2.386.752c13.59-2.333,25.381,1.182,35.112,11.115a4.126,4.126,0,0,1,.378.639c-.839.725-1.688,1.478-2.558,2.206-5.212,4.36-10.455,8.685-15.621,13.1a1.926,1.926,0,0,1-2.731.149,11.517,11.517,0,0,0-8.792-1.82,7.272,7.272,0,0,0-6.073,7.89c.194,3.4,3.243,6.321,6.918,6.667a9.995,9.995,0,0,0,7.752-2.415c1.1-.954,1.742-.84,2.773.044,3.147,2.7,3.264,2.782-.341,4.983-6.85,4.182-15.914,3.851-20.83-3.237a12.177,12.177,0,0,1,4.717-17.686,15.592,15.592,0,0,1,13.632-.294,1.824,1.824,0,0,0,1.555-.046c3.781-3.144,7.5-6.359,11.672-9.923-2.375-1.392-4.368-2.742-6.51-3.786-14.252-6.948-32.714-1.237-40.246,12.248-7.15,12.8-2.1,28.933,10.44,36.2,10.314,5.976,20.855,6.007,31.483.886a45.64,45.64,0,0,0,4.8-3.126c-1.345-1.16-2.409-2.189-3.606-3.029-.284-.2-1.038.176-1.532.388-2.964,1.274-5.8,3.152-8.892,3.769-11.459,2.289-23.766-1.955-28.767-13.6-6.059-14.112,2.83-26.948,15.393-30.7a25.922,25.922,0,0,1,17.084.673c.63.241,1.229.567,2.276,1.055-1.572,1.309-2.827,2.474-4.221,3.438-.385.266-1.207.021-1.789-.135-8.013-2.146-15.028-.4-20.619,5.755-7.952,8.749-4.629,22.533,6.513,27.178,8.311,3.464,15.924,2.128,22.5-4.1,1.25-1.184,1.951-1.273,3.237-.084,2.855,2.639,5.887,5.086,8.841,7.617.519.445,1.011.92,1.628,1.483a34.814,34.814,0,0,1-8.614,7.128c-7.984,4.713-16.615,5.931-25.706,4.737a3.712,3.712,0,0,0-2.312.618,19.617,19.617,0,0,0-2.574,2.327C1521.651,1165.862,1516.708,1170.6,1511.478,1175.613Zm-38.954-49.371c3.089,3.059,6.033,6,9.036,8.887a1.342,1.342,0,0,0,1.309-.041c2.988-2.9,5.917-5.859,8.906-8.848-3.041-3.072-5.957-6.047-8.933-8.963a1.332,1.332,0,0,0-1.3,0C1478.557,1120.176,1475.631,1123.133,1472.524,1126.241Zm14.979,14.881c3.006,3.011,5.881,5.858,8.713,8.747.8.813,1.324.321,1.877-.223q2.292-2.255,4.56-4.535c1.293-1.291,2.581-2.586,4.174-4.183-3.149-3.046-6.081-5.917-9.082-8.713a1.5,1.5,0,0,0-1.437.161C1493.4,1135.19,1490.554,1138.071,1487.5,1141.122Zm.173-29.853c2.925,2.964,5.823,5.943,8.8,8.838a1.655,1.655,0,0,0,1.551-.2,51.052,51.052,0,0,0,4.194-4.155,35.492,35.492,0,0,0,3.2-4.257,1.756,1.756,0,0,0-.241-1.642q-3.543-3.7-7.267-7.229a1.592,1.592,0,0,0-1.525-.145C1493.458,1105.344,1490.605,1108.288,1487.676,1111.269Zm14.5,44.575c3.12,3.118,5.964,6.005,8.886,8.811a1.616,1.616,0,0,0,1.577.044c2.953-2.854,5.825-5.791,9-8.989l-10.636-8.139Zm.235-59.7,7.84,7.834c1.587-1.377,3.226-2.928,5-4.3,1.756-1.361,3.65-2.545,5.6-3.884-2.818-2.816-5.451-5.5-8.181-8.09a1.762,1.762,0,0,0-1.709.094C1508.053,1090.536,1505.232,1093.368,1502.413,1096.147Z" transform="translate(-1462.462 -1075.777)"/><path class="a" d="M2427.606,1198.53c.317-4.157.315-4.135,4.245-3.855,1,.071,1.49.474,1.484,1.491-.06,9.17-.014,18.343-.2,27.511-.12,5.781-3.5,9.425-8.794,11-5.71,1.7-11.391,1.6-16.3-2.5a38.877,38.877,0,0,1-3.208-3.408,20.314,20.314,0,0,1,2.964-2.6,2.17,2.17,0,0,1,1.981.509,11.3,11.3,0,0,0,10.392,3.67c5.017-.641,7.458-4.167,6.833-9.712a1.873,1.873,0,0,0-.6.245c-5.851,5.646-16.852,4.151-20.732-5.648a16.34,16.34,0,0,1,3.694-17.64,12.586,12.586,0,0,1,17.049-.137C2426.736,1197.761,2427.073,1198.053,2427.606,1198.53Zm-.463,10.879v-1.741a8.237,8.237,0,0,0-10.245-7.648c-4.211,1.253-7.057,6.949-5.837,11.686,1.718,6.676,8.738,9.175,13.8,4.974C2427.24,1214.7,2427.366,1212.141,2427.143,1209.409Z" transform="translate(-2076.024 -1152.906)"/><path class="a" d="M1770.914,1179.063c2.591-2.409,5.108-4.02,8.334-4.343,6.04-.6,9.893,2.272,10.6,8.318a80.079,80.079,0,0,1,.292,8.341c.044,3.6-.029,7.2.031,10.805.023,1.352-.44,1.855-1.822,1.815-4.724-.135-4,.668-4.076-4.051-.077-4.755-.036-9.517-.281-14.264-.26-5.018-4.043-7.031-8.4-4.512-2.974,1.719-4.853,4.159-4.716,7.907.157,4.293-.006,8.6.061,12.9.023,1.47-.386,2.091-1.974,2.031-4.438-.166-3.928.709-3.937-4.025q-.031-16.819,0-33.638c0-2.257.085-2.329,2.369-2.332,3.486-.005,3.557-.446,3.529,3.463C1770.892,1171.186,1770.914,1174.9,1770.914,1179.063Z" transform="translate(-1659.513 -1133.232)"/><path class="a" d="M1863.265,1206.83c.7-5.158-2.661-8.48-7.624-7.531a22.845,22.845,0,0,0-5.8,2.2c-1.988,1-2.131,1.076-3.146-.936-.313-.621-.609-1.251-1-2.047a19.16,19.16,0,0,1,13.956-3.9c5.03.585,8.515,3.591,9.509,8.494a24.934,24.934,0,0,1,.374,4.5c.054,3.078-.031,6.158.059,9.235.017.574.577,1.134.892,1.7.153.274.446.537.455.812.046,1.442.022,2.885.022,4.275-3.616,1.166-5.291.506-7.056-2.783a15.752,15.752,0,0,1-7.943,3.544c-5.241.8-10.218-2.113-11.477-6.807a8.349,8.349,0,0,1,4.134-9.765c4.278-2.36,8.8-2.128,13.375-1.224C1862.39,1206.666,1862.781,1206.738,1863.265,1206.83Zm.439,6.594c-.286-.809-.4-2.183-.886-2.335-3.463-1.077-7.043-1.644-10.469.075-3.079,1.545-3.205,5.4-.357,7.38,2.459,1.708,6.626,1.254,9.536-1.055C1862.8,1216.479,1863.837,1215.334,1863.7,1213.425Z" transform="translate(-1711.065 -1153.089)"/><path class="a" d="M2330.249,1198.729a14.758,14.758,0,0,1,8.919-4.405c5.606-.71,9.847,2.187,10.209,7.78.438,6.761.308,13.559.421,20.34,0,.173.042.41-.05.511-1.422,1.543-3.256.5-4.89.667-.307.031-1.03-.985-1.041-1.528-.086-4.468-.01-8.939-.07-13.408a27.023,27.023,0,0,0-.458-4.832c-.664-3.379-3.062-4.712-6.339-3.671a8.677,8.677,0,0,0-6.375,8.666c0,4.353-.038,8.707.022,13.06.019,1.374-.487,1.848-1.836,1.818-5.035-.112-4.272.645-4.295-4.178-.036-7.6.035-15.209-.044-22.812-.017-1.646.537-2.253,2.11-2.039a3.938,3.938,0,0,0,.522,0c2.989,0,2.988,0,3.082,3.059C2330.144,1197.985,2330.188,1198.211,2330.249,1198.729Z" transform="translate(-2023.855 -1152.917)"/><path class="a" d="M2144.214,1224.386c-4.147,1.254-6.342.029-6.937-3.853a14.419,14.419,0,0,1-11.058,4.657,8.254,8.254,0,0,1-8.311-6.342,22.29,22.29,0,0,1-.761-5.311c-.1-5.283.007-10.569-.061-15.852-.02-1.531.374-2.215,2.046-2.172,4.544.117,4.09-.507,4.122,4.1.034,4.932-.121,9.879.227,14.789.35,4.937,4.294,6.777,8.631,4.247,2.917-1.7,4.765-4.03,4.6-7.739-.2-4.347-.048-8.709-.045-13.064,0-2.22.074-2.307,2.2-2.3,4.274.011,3.9-.478,3.9,3.936,0,5.923-.029,11.847.044,17.769.008.631.623,1.251.943,1.882a2.781,2.781,0,0,1,.44,1.014C2144.244,1221.533,2144.214,1222.922,2144.214,1224.386Z" transform="translate(-1888.818 -1153.759)"/><path class="a" d="M1967.229,1198.974a14.964,14.964,0,0,1,9.509-4.529c5.447-.444,9.071,2.4,9.722,7.837a65.075,65.075,0,0,1,.345,6.937c.052,4.237-.021,8.476.037,12.713.018,1.308-.33,1.909-1.757,1.87-4.845-.131-4.146.67-4.2-4.107-.056-4.642.1-9.3-.191-13.922-.363-5.754-4.124-7.536-8.978-4.392-2.657,1.721-4.354,4.022-4.233,7.474.152,4.348,0,8.707.058,13.06.021,1.444-.492,1.928-1.935,1.891-4.722-.122-4.021.558-4.04-4.094-.031-7.547.033-15.094-.041-22.64-.016-1.672.5-2.419,2.19-2.192a2.624,2.624,0,0,0,.348,0c2.944,0,2.943,0,3.047,2.881C1967.117,1198.037,1967.161,1198.31,1967.229,1198.974Z" transform="translate(-1787.499 -1153.037)"/><path class="a" d="M2063.582,1198.432a2.943,2.943,0,0,1-.19.435c-2.305,3.228-2.3,3.218-5.793,1.457a10.723,10.723,0,0,0-7.419-1.03c-.558.129-1.3.23-1.584.617-.682.918-1.553,2-1.563,3.018a3.248,3.248,0,0,0,1.851,2.317c2.317.884,4.78,1.379,7.173,2.072a34.9,34.9,0,0,1,3.452,1.17c6.8,2.763,5.327,10.555,1.549,13.348a13.855,13.855,0,0,1-9.22,2.445c-4.549-.205-8.784-1.371-12.291-4.523a2.438,2.438,0,0,1,.17-.533c2.313-3.638,2.288-3.587,6.1-1.57a12.282,12.282,0,0,0,9.237,1.371,3.247,3.247,0,0,0,1.7-.806c.622-.833,1.465-1.939,1.326-2.786a3.769,3.769,0,0,0-2.059-2.445c-2.419-.938-4.988-1.49-7.494-2.2-.724-.206-1.439-.442-2.159-.663-2.862-.88-5.067-2.431-5.332-5.686a8.362,8.362,0,0,1,3.8-8.238C2050.106,1192.747,2058.724,1193.772,2063.582,1198.432Z" transform="translate(-1838.316 -1152.875)"/><path class="a" d="M2247.57,1178.271c1.616,0,3,.037,4.382-.011,1.17-.041,1.659.423,1.706,1.624.136,3.483.167,3.487-3.312,3.487h-2.776v9.009c0,2.149.112,4.3-.027,6.444-.188,2.895,1.5,3.468,3.718,2.993,3.374-.722,3.373-.737,4.332,2.615.11.382.189.772.295,1.208a13.924,13.924,0,0,1-9.38,1.926c-3.248-.517-5.124-2.93-5.145-6.445q-.049-8.014.012-16.027c.011-1.2-.2-1.8-1.6-1.757-2.142.063-2.109-.093-2.2-2.878-.052-1.676.54-2.392,2.218-2.2a11.7,11.7,0,0,0,1.558-.068q0-3.186,0-6.355c0-2.834,0-2.834,2.8-2.834.522,0,1.047.025,1.568,0,1.336-.076,1.88.557,1.859,1.872C2247.542,1173.247,2247.57,1175.625,2247.57,1178.271Z" transform="translate(-1967.292 -1136.488)"/><path class="a" d="M2205.973,1182.137c0-5.4.042-10.8-.027-16.194-.021-1.58.486-2.159,2.1-2.117,4.473.116,3.994-.492,4,4.017q.015,13.669,0,27.339c0,3.073,1.028,3.951,3.944,3.161,1.443-.391,2.059.044,2.278,1.441.584,3.717,1.3,3.323-2.6,4.16a16.342,16.342,0,0,1-4.651.281c-3.041-.24-5.015-2.737-5.042-6.242C2205.944,1192.7,2205.974,1187.419,2205.973,1182.137Z" transform="translate(-1946.692 -1133.121)"/><path class="a" d="M2299.609,1210.23c0,4.18-.039,8.36.022,12.539.02,1.336-.388,1.88-1.786,1.844-5.171-.133-4.415.726-4.44-4.4-.036-7.431-.011-14.861-.008-22.292,0-2.241.1-2.332,2.391-2.336,4.239-.008,3.818-.321,3.82,3.849Q2299.611,1204.831,2299.609,1210.23Z" transform="translate(-2003.637 -1153.802)"/><path class="a" d="M1937.024,1210.211c0,4.184-.052,8.368.028,12.551.028,1.475-.5,1.923-1.924,1.882-4.622-.131-3.991.631-4.008-3.938-.029-7.67.026-15.341-.037-23.011-.013-1.506.415-2.039,1.97-2,4.5.1,3.953-.362,3.969,3.885C1937.034,1203.122,1937.024,1206.667,1937.024,1210.211Z" transform="translate(-1767.674 -1153.876)"/><path class="a" d="M2299.623,1167.634c-.023,3.761.494,3.561-3.516,3.553-2.695-.006-2.695,0-2.7-2.72q0-.26,0-.52c-.01-4.585-.33-4.019,4.077-4.122,1.711-.04,2.313.64,2.145,2.251A15.059,15.059,0,0,0,2299.623,1167.634Z" transform="translate(-2003.651 -1133.123)"/><path class="a" d="M1931.159,1167.6c.026-4.111-.417-3.535,3.655-3.566,2.18-.016,2.248.071,2.255,2.269q0,1.566,0,3.131c0,.29.1.645-.032.859-1.165,1.923-3.03.585-4.547.91-.918.2-1.373-.389-1.335-1.342C1931.185,1169.107,1931.161,1168.352,1931.159,1167.6Z" transform="translate(-1767.72 -1133.25)"/></svg>