<svg xmlns="http://www.w3.org/2000/svg" xmlns:xlink="http://www.w3.org/1999/xlink" width="35" height="35" viewBox="0 0 35 35"><defs><style>.a{fill:red;}.b{clip-path:url(#a);}</style><clipPath id="a"><circle class="a" cx="17.5" cy="17.5" r="17.5"/></clipPath></defs><g class="b"><path class="a" d="M-1732.5,149a17.385,17.385,0,0,1-12.374-5.126A17.387,17.387,0,0,1-1750,131.5a17.385,17.385,0,0,1,5.125-12.374A17.385,17.385,0,0,1-1732.5,114a17.385,17.385,0,0,1,12.374,5.125A17.385,17.385,0,0,1-1715,131.5a17.387,17.387,0,0,1-5.125,12.375A17.384,17.384,0,0,1-1732.5,149Zm-2.973-25.457a10.47,10.47,0,0,0-4.97,1.988c-.025.037-2.547,3.764-2.981,10.938a9.452,9.452,0,0,0,6.46,2.981l.814-1.087a9.9,9.9,0,0,1-4.293-2.892,12.684,12.684,0,0,0,7.957,2.488,12.668,12.668,0,0,0,7.949-2.483,9.878,9.878,0,0,1-4.285,2.886l.814,1.087a9.371,9.371,0,0,0,6.46-2.981c-.445-7.156-2.969-10.9-2.994-10.938a10.478,10.478,0,0,0-4.97-1.989l-.239.485a9.667,9.667,0,0,1,4.717,2.5,14.7,14.7,0,0,0-7.457-1.99,14.71,14.71,0,0,0-7.458,1.99,9.869,9.869,0,0,1,4.717-2.5Zm6.207,10.937a1.881,1.881,0,0,1-1.743-1.99,1.88,1.88,0,0,1,1.743-1.989,1.88,1.88,0,0,1,1.743,1.989A1.881,1.881,0,0,1-1729.266,134.481Zm-6.467,0a1.881,1.881,0,0,1-1.742-1.99,1.88,1.88,0,0,1,1.742-1.989,1.88,1.88,0,0,1,1.743,1.989A1.881,1.881,0,0,1-1735.734,134.481Z" transform="translate(1750 -114)"/></g></svg>