<?xml version="1.0" encoding="UTF-8" standalone="no"?>
<svg
   xmlns:dc="http://purl.org/dc/elements/1.1/"
   xmlns:cc="http://creativecommons.org/ns#"
   xmlns:rdf="http://www.w3.org/1999/02/22-rdf-syntax-ns#"
   xmlns:svg="http://www.w3.org/2000/svg"
   xmlns="http://www.w3.org/2000/svg"
   xmlns:sodipodi="http://sodipodi.sourceforge.net/DTD/sodipodi-0.dtd"
   xmlns:inkscape="http://www.inkscape.org/namespaces/inkscape"
   width="35"
   height="35"
   viewBox="0 0 35 35"
   version="1.1"
   id="svg15"
   sodipodi:docname="Telegram.svg"
   inkscape:version="1.0.1 (3bc2e813f5, 2020-09-07)">
  <metadata
     id="metadata19">
    <rdf:RDF>
      <cc:Work
         rdf:about="">
        <dc:format>image/svg+xml</dc:format>
        <dc:type
           rdf:resource="http://purl.org/dc/dcmitype/StillImage" />
      </cc:Work>
    </rdf:RDF>
  </metadata>
  <sodipodi:namedview
     pagecolor="#ffffff"
     bordercolor="#666666"
     borderopacity="1"
     objecttolerance="10"
     gridtolerance="10"
     guidetolerance="10"
     inkscape:pageopacity="0"
     inkscape:pageshadow="2"
     inkscape:window-width="1920"
     inkscape:window-height="1051"
     id="namedview17"
     showgrid="false"
     inkscape:zoom="25.142857"
     inkscape:cx="17.5"
     inkscape:cy="17.5"
     inkscape:window-x="-9"
     inkscape:window-y="-9"
     inkscape:window-maximized="1"
     inkscape:current-layer="svg15" />
  <defs
     id="defs7">
    <style
       id="style2">.a{fill:red;}.b{clip-path:url(#a);}</style>
    <clipPath
       id="a">
      <circle
         class="a"
         cx="17.5"
         cy="17.5"
         r="17.5"
         transform="translate(1276 3851)"
         id="circle4" />
    </clipPath>
  </defs>
  <g
     class="b"
     transform="translate(-1276 -3851)"
     clip-path="url(#a)"
     id="g13"
     style="fill:#ffffff">
    <g
       transform="translate(1276 3850.999)"
       id="g11"
       style="fill:#ffffff">
      <path
         class="a"
         d="M-1646.5,149a17.387,17.387,0,0,1-12.375-5.125A17.385,17.385,0,0,1-1664,131.5a17.386,17.386,0,0,1,5.126-12.375A17.386,17.386,0,0,1-1646.5,114a17.385,17.385,0,0,1,12.374,5.126A17.387,17.387,0,0,1-1629,131.5a17.385,17.385,0,0,1-5.125,12.374A17.386,17.386,0,0,1-1646.5,149Zm.573-13.317h0l.072.05.009.006,0,0,.1.072,1,.737q1.372,1.014,2.745,2.027a1.3,1.3,0,0,0,.745.293c.407,0,.708-.323.828-.886.788-3.7,1.607-7.563,2.33-10.974l.1-.467c.024-.115.05-.23.075-.345a9.125,9.125,0,0,0,.2-1.11.935.935,0,0,0-.2-.739.714.714,0,0,0-.546-.225,1.21,1.21,0,0,0-.434.088l-11.085,4.279-.075.029-.95.366-.058.022c-1.109.427-2.256.868-3.386,1.316a2.419,2.419,0,0,0-.7.436.385.385,0,0,0-.145.312.426.426,0,0,0,.206.318,2.009,2.009,0,0,0,.526.243c1.312.417,2.482.782,3.577,1.116a.369.369,0,0,1,.276.275c.3.921.595,1.844.885,2.737q.321.99.642,1.981a.417.417,0,0,0,.423.327l.059,0a1.044,1.044,0,0,0,.764-.338c.471-.462.958-.935,1.387-1.352l.126-.122.491-.477Zm-2.8,1.158h0l-.4-1.241-.372-1.142q-.081-.247-.16-.494c-.137-.424-.279-.862-.429-1.295a.25.25,0,0,1,.128-.357c1.887-1.186,3.8-2.394,5.659-3.563l.017-.011,2.72-1.714a1.543,1.543,0,0,1,.419-.207.283.283,0,0,1,.074-.009.887.887,0,0,1,.169.023c.038.008.076.015.112.019-.017.03-.031.063-.046.095a.565.565,0,0,1-.119.194c-1.275,1.159-2.559,2.316-3.8,3.434l-.752.678c-.829.749-1.769,1.6-2.688,2.419a.639.639,0,0,0-.227.46c-.053.668-.117,1.345-.178,2q-.028.3-.056.6a.562.562,0,0,1-.015.076l0,.009-.005.021-.041.011Z"
         transform="translate(1664 -114.001)"
         id="path9"
         style="fill:#ffffff" />
    </g>
  </g>
</svg>
