<svg xmlns="http://www.w3.org/2000/svg" xmlns:xlink="http://www.w3.org/1999/xlink" width="35" height="35" viewBox="0 0 35 35"><defs><style>.a{fill:red;}.b{clip-path:url(#a);}.c{fill:none;}</style><clipPath id="a"><circle class="a" cx="17.5" cy="17.5" r="17.5" transform="translate(1319 3851)"/></clipPath></defs><g class="b" transform="translate(-1319 -3851)"><g transform="translate(1319 3851)"><path class="a" d="M-1689.5,149a17.386,17.386,0,0,1-12.374-5.127A17.385,17.385,0,0,1-1707,131.5a17.384,17.384,0,0,1,5.126-12.374A17.386,17.386,0,0,1-1689.5,114a17.385,17.385,0,0,1,12.374,5.126A17.385,17.385,0,0,1-1672,131.5a17.386,17.386,0,0,1-5.126,12.374A17.385,17.385,0,0,1-1689.5,149Zm-4.061-8.614h0v0a12.649,12.649,0,0,0,12.771-12.772c0-.191,0-.388-.014-.58a9.11,9.11,0,0,0,2.24-2.324,8.947,8.947,0,0,1-2.577.707,4.5,4.5,0,0,0,1.975-2.481,8.954,8.954,0,0,1-2.849,1.088,4.456,4.456,0,0,0-3.275-1.414,4.47,4.47,0,0,0-3.074,1.218,4.5,4.5,0,0,0-1.3,4.287,12.762,12.762,0,0,1-9.25-4.69,4.5,4.5,0,0,0,1.39,5.992,4.474,4.474,0,0,1-2.038-.56v.056a4.5,4.5,0,0,0,3.6,4.4,4.53,4.53,0,0,1-1.183.158,4.466,4.466,0,0,1-.844-.08,4.5,4.5,0,0,0,4.193,3.118,9.033,9.033,0,0,1-5.556,1.925h-.016a8.329,8.329,0,0,1-1.067-.067,12.605,12.605,0,0,0,6.852,2.016Z" transform="translate(1707 -114)"/><path class="c" d="M17.5,0h0A17.5,17.5,0,0,1,35,17.5h0A17.5,17.5,0,0,1,17.5,35h0A17.5,17.5,0,0,1,0,17.5H0A17.5,17.5,0,0,1,17.5,0Z"/></g></g></svg>